# xmcd CD database file
#
# Track frame offsets:
#	150
#	14824
#	25048
#	38483
#	54463
#	70857
#	85996
#	100143
#	112308
#	123708
#	136220
#	149405
#	159019
#	174137
#	188257
#	200749
#
# Disc length: 2827 seconds
#
# Revision: 1
# Processed by: cddbd v1.5.1PL0 Copyright (c) Steve Scherf et al.
# Submitted via: CDex 1.51
#
DISCID=d50b0910
DTITLE=Muddy Waters - You're Gonna Miss Me When I'm Gone
DYEAR=2002
DGENRE=Blues
TTITLE0=Streamline Woman
TTITLE1=Mean Red Spider
TTITLE2=Rollin' And Tumblin'
TTITLE3=Country Blues
TTITLE4=You're Gonna Miss Me When I'm Gone
TTITLE5=I Be Bound To Write To You
TTITLE6=I Feel Like Going Home
TTITLE7=I Can't Be Satisfied
TTITLE8=Little Anna Mea
TTITLE9=Little Geneva
TTITLE10=Walkin' Blues
TTITLE11=Why Don't You Live So God Can Use You
TTITLE12=32 - 20 Blues
TTITLE13=I Be's Troubled
TTITLE14=Train Fare Home Blues
TTITLE15=Gypsy Woman
EXTD=YEAR: 2002
EXTT0=
EXTT1=
EXTT2=
EXTT3=
EXTT4=
EXTT5=
EXTT6=
EXTT7=
EXTT8=
EXTT9=
EXTT10=
EXTT11=
EXTT12=
EXTT13=
EXTT14=
EXTT15=
PLAYORDER=
